<?xml version="1.0" standalone="no"?><!-- Generator: Gravit.io --><svg xmlns="http://www.w3.org/2000/svg" xmlns:xlink="http://www.w3.org/1999/xlink" style="isolation:isolate" viewBox="0 0 21 21" width="21" height="21"><defs><clipPath id="_clipPath_hgwm4sFUI0OvWQxhwOlNSqII6xyM1SYG"><rect width="21" height="21"/></clipPath></defs><g clip-path="url(#_clipPath_hgwm4sFUI0OvWQxhwOlNSqII6xyM1SYG)"><clipPath id="_clipPath_HD6e8mNNa4CsPgOd4oWFvS1DWulbrFuF"><rect x="0" y="0" width="21" height="21" transform="matrix(1,0,0,1,0,0)" fill="rgb(255,255,255)"/></clipPath><g clip-path="url(#_clipPath_HD6e8mNNa4CsPgOd4oWFvS1DWulbrFuF)"><g id="Group"><path d=" M 10.5 1.75 L 10.5 1.75 C 15.329 1.75 19.25 5.671 19.25 10.5 L 19.25 10.5 C 19.25 15.329 15.329 19.25 10.5 19.25 L 10.5 19.25 C 5.671 19.25 1.75 15.329 1.75 10.5 L 1.75 10.5 C 1.75 5.671 5.671 1.75 10.5 1.75 Z " fill="rgb(0,132,255)"/><path d=" M 9.646 13.93 L 6.137 14.87 L 7.077 11.361 L 9.646 13.93 Z " fill="rgb(255,255,255)"/><path d=" M 11.354 7.07 L 14.863 6.13 L 13.923 9.639 L 11.354 7.07 Z " fill="rgb(255,255,255)"/><line x1="7.209" y1="13.775" x2="13.75" y2="7.235" vector-effect="non-scaling-stroke" stroke-width="1" stroke="rgb(255,255,255)" stroke-opacity="100" stroke-linejoin="miter" stroke-linecap="round" stroke-miterlimit="3"/></g></g></g></svg>