<?xml version="1.0" standalone="no"?><!-- Generator: Gravit.io --><svg xmlns="http://www.w3.org/2000/svg" xmlns:xlink="http://www.w3.org/1999/xlink" style="isolation:isolate" viewBox="0 0 21 21" width="21" height="21"><defs><clipPath id="_clipPath_PJyeILWwheMAvh920AXurx163bmCzO2V"><rect width="21" height="21"/></clipPath></defs><g clip-path="url(#_clipPath_PJyeILWwheMAvh920AXurx163bmCzO2V)"><clipPath id="_clipPath_zsPkJDcFMfvRMOFopoyFU5HE6kmpJcZ5"><rect x="0" y="0" width="21" height="21" transform="matrix(1,0,0,1,0,0)" fill="rgb(255,255,255)"/></clipPath><g clip-path="url(#_clipPath_zsPkJDcFMfvRMOFopoyFU5HE6kmpJcZ5)"><g id="Group"><clipPath id="_clipPath_OsQBE73L1ws5eaeI6uMt1IQIRmZBCtwv"><rect x="0" y="0" width="21" height="21" transform="matrix(1,0,0,1,0,0)" fill="rgb(255,255,255)"/></clipPath><g clip-path="url(#_clipPath_OsQBE73L1ws5eaeI6uMt1IQIRmZBCtwv)"><g id="Group"><g id="Group"><path d=" M 10.5 1.75 L 10.5 1.75 C 15.329 1.75 19.25 5.671 19.25 10.5 L 19.25 10.5 C 19.25 15.329 15.329 19.25 10.5 19.25 L 10.5 19.25 C 5.671 19.25 1.75 15.329 1.75 10.5 L 1.75 10.5 C 1.75 5.671 5.671 1.75 10.5 1.75 Z " fill="rgb(255,255,255)"/><line x1="7.438" y1="13.563" x2="13.563" y2="7.438" vector-effect="non-scaling-stroke" stroke-width="1.7" stroke="rgb(215,0,0)" stroke-opacity="10000" stroke-linejoin="miter" stroke-linecap="square" stroke-miterlimit="3"/><line x1="7.438" y1="7.438" x2="13.563" y2="13.563" vector-effect="non-scaling-stroke" stroke-width="1.7" stroke="rgb(215,0,0)" stroke-opacity="10000" stroke-linejoin="miter" stroke-linecap="square" stroke-miterlimit="3"/></g></g></g></g></g></g></svg>