<?xml version="1.0" standalone="no"?><!-- Generator: Gravit.io --><svg xmlns="http://www.w3.org/2000/svg" xmlns:xlink="http://www.w3.org/1999/xlink" style="isolation:isolate" viewBox="0 0 18 18" width="18" height="18"><defs><clipPath id="_clipPath_P2oMFFt3CgOGLArJOdwYSFGl2CJ8ZzUw"><rect width="18" height="18"/></clipPath></defs><g clip-path="url(#_clipPath_P2oMFFt3CgOGLArJOdwYSFGl2CJ8ZzUw)"><clipPath id="_clipPath_R4lp5FpgEU2TS9ZgqDcVQi403fMGBpSm"><rect x="-1.5" y="-1.5" width="21" height="21" transform="matrix(1,0,0,1,0,0)" fill="rgb(255,255,255)"/></clipPath><g clip-path="url(#_clipPath_R4lp5FpgEU2TS9ZgqDcVQi403fMGBpSm)"><g id="Group"><clipPath id="_clipPath_YsUVorvxj04CnnW8Kpi4YLI26YzxYXRy"><rect x="-1.5" y="-1.5" width="21" height="21" transform="matrix(1,0,0,1,0,0)" fill="rgb(255,255,255)"/></clipPath><g clip-path="url(#_clipPath_YsUVorvxj04CnnW8Kpi4YLI26YzxYXRy)"><g id="Group"><g id="Group"><path d=" M 9 0.25 L 9 0.25 C 13.829 0.25 17.75 4.171 17.75 9 L 17.75 9 C 17.75 13.829 13.829 17.75 9 17.75 L 9 17.75 C 4.171 17.75 0.25 13.829 0.25 9 L 0.25 9 C 0.25 4.171 4.171 0.25 9 0.25 Z " fill="rgb(0,189,69)"/><line x1="6.959" y1="9" x2="11.041" y2="9" vector-effect="non-scaling-stroke" stroke-width="1.5" stroke="rgb(255,255,255)" stroke-opacity="10000" stroke-linejoin="miter" stroke-linecap="square" stroke-miterlimit="3"/></g></g></g></g></g></g></svg>