<?xml version="1.0" standalone="no"?><!-- Generator: Gravit.io --><svg xmlns="http://www.w3.org/2000/svg" xmlns:xlink="http://www.w3.org/1999/xlink" style="isolation:isolate" viewBox="0 0 18 18" width="18" height="18"><defs><clipPath id="_clipPath_PZ9fK5ZayCzRIeBbqZjcXTdGnigifodB"><rect width="18" height="18"/></clipPath></defs><g clip-path="url(#_clipPath_PZ9fK5ZayCzRIeBbqZjcXTdGnigifodB)"><clipPath id="_clipPath_9fC7jbyXY4igVTeSALnIPG99TgTFiFuA"><rect x="-1.5" y="-1.5" width="21" height="21" transform="matrix(1,0,0,1,0,0)" fill="rgb(255,255,255)"/></clipPath><g clip-path="url(#_clipPath_9fC7jbyXY4igVTeSALnIPG99TgTFiFuA)"><g id="Group"><clipPath id="_clipPath_oH5xGvawVfzCWuQRIyZG5jIJO8Hk4KSq"><rect x="-1.5" y="-1.5" width="21" height="21" transform="matrix(1,0,0,1,0,0)" fill="rgb(255,255,255)"/></clipPath><g clip-path="url(#_clipPath_oH5xGvawVfzCWuQRIyZG5jIJO8Hk4KSq)"><g id="Group"><g id="Group"><path d=" M 9 0.25 L 9 0.25 C 13.829 0.25 17.75 4.171 17.75 9 L 17.75 9 C 17.75 13.829 13.829 17.75 9 17.75 L 9 17.75 C 4.171 17.75 0.25 13.829 0.25 9 L 0.25 9 C 0.25 4.171 4.171 0.25 9 0.25 Z " fill="rgb(255,255,255)"/><path d=" M 8.146 12.43 L 4.637 13.37 L 5.577 9.861 L 8.146 12.43 Z " fill="rgb(0,132,255)"/><path d=" M 9.854 5.57 L 13.363 4.63 L 12.423 8.139 L 9.854 5.57 Z " fill="rgb(0,132,255)"/><line x1="5.709" y1="12.275" x2="12.25" y2="5.735" vector-effect="non-scaling-stroke" stroke-width="1" stroke="rgb(0,132,255)" stroke-opacity="10000" stroke-linejoin="miter" stroke-linecap="round" stroke-miterlimit="3"/></g></g></g></g></g></g></svg>