<?xml version="1.0" standalone="no"?><!-- Generator: Gravit.io --><svg xmlns="http://www.w3.org/2000/svg" xmlns:xlink="http://www.w3.org/1999/xlink" style="isolation:isolate" viewBox="0 0 18 18" width="18" height="18"><defs><clipPath id="_clipPath_LNd1nYyRxLnCMc5COGyWedtKh5BRzoHQ"><rect width="18" height="18"/></clipPath></defs><g clip-path="url(#_clipPath_LNd1nYyRxLnCMc5COGyWedtKh5BRzoHQ)"><clipPath id="_clipPath_8rxW3YSNrVySIIGDlLvu6JZqJ3dAw7Ge"><rect x="-1.5" y="-1.5" width="21" height="21" transform="matrix(1,0,0,1,0,0)" fill="rgb(255,255,255)"/></clipPath><g clip-path="url(#_clipPath_8rxW3YSNrVySIIGDlLvu6JZqJ3dAw7Ge)"><g id="Group"><clipPath id="_clipPath_RINCJTjiv5cIzN2eSv0Ub88jcLAJb5L3"><rect x="-1.5" y="-1.5" width="21" height="21" transform="matrix(1,0,0,1,0,0)" fill="rgb(255,255,255)"/></clipPath><g clip-path="url(#_clipPath_RINCJTjiv5cIzN2eSv0Ub88jcLAJb5L3)"><g id="Group"><g id="Group"><clipPath id="_clipPath_9yDdBE3zK7TYifykYdlcqRo6XvqAxudc"><rect x="-1.5" y="-1.5" width="21" height="21" transform="matrix(1,0,0,1,0,0)" fill="rgb(255,255,255)"/></clipPath><g clip-path="url(#_clipPath_9yDdBE3zK7TYifykYdlcqRo6XvqAxudc)"><g id="Group"><g id="Group"><g id="Group"><path d=" M 9 0.25 L 9 0.25 C 13.829 0.25 17.75 4.171 17.75 9 L 17.75 9 C 17.75 13.829 13.829 17.75 9 17.75 L 9 17.75 C 4.171 17.75 0.25 13.829 0.25 9 L 0.25 9 C 0.25 4.171 4.171 0.25 9 0.25 Z " fill="rgb(215,0,0)"/><line x1="5.938" y1="12.063" x2="12.063" y2="5.938" vector-effect="non-scaling-stroke" stroke-width="1.7" stroke="rgb(255,255,255)" stroke-opacity="1000000" stroke-linejoin="miter" stroke-linecap="square" stroke-miterlimit="3"/><line x1="5.938" y1="5.938" x2="12.063" y2="12.063" vector-effect="non-scaling-stroke" stroke-width="1.7" stroke="rgb(255,255,255)" stroke-opacity="1000000" stroke-linejoin="miter" stroke-linecap="square" stroke-miterlimit="3"/></g></g></g></g></g></g></g></g></g></g></svg>